<?xml version="1.0" encoding="iso-8859-1"?>
<!-- Generator: Adobe Illustrator 19.0.0, SVG Export Plug-In . SVG Version: 6.00 Build 0)  -->
<svg version="1.1" id="Layer_1" xmlns="http://www.w3.org/2000/svg" xmlns:xlink="http://www.w3.org/1999/xlink" x="0px" y="0px"
	 viewBox="0 0 299.437 299.437" style="enable-background:new 0 0 299.437 299.437;" xml:space="preserve">
<g>
	<g>
		<g>
			<path d="M286.026,15c0-8.271-6.728-15-15-15H28.411c-8.271,0-15,6.728-15,15v76.479c0,3.844,1.465,7.343,3.851,10
				c-2.386,2.657-3.851,6.156-3.851,10v76.479c0,3.844,1.465,7.343,3.851,10c-2.386,2.657-3.851,6.156-3.851,10v76.479
				c0,8.271,6.729,15,15,15h242.615c8.272,0,15-6.729,15-15v-76.479c0-3.844-1.465-7.343-3.851-10c2.386-2.657,3.851-6.156,3.851-10
				v-76.479c0-3.844-1.465-7.343-3.851-10c2.386-2.657,3.851-6.156,3.851-10V15z M276.026,284.436c0,2.757-2.243,5-5,5H28.411
				c-2.757,0-5-2.243-5-5v-76.479c0-2.757,2.243-5,5-5h242.615c2.757,0,5,2.243,5,5V284.436z M276.026,187.958c0,2.757-2.243,5-5,5
				H28.411c-2.757,0-5-2.243-5-5v-76.479c0-2.757,2.243-5,5-5h242.615c2.757,0,5,2.243,5,5V187.958z M276.026,91.479
				c0,2.757-2.243,5-5,5H28.411c-2.757,0-5-2.243-5-5V15c0-2.757,2.243-5,5-5h242.615c2.757,0,5,2.243,5,5V91.479z"/>
			<path d="M66.11,26.572c-14.704,0-26.667,11.963-26.667,26.667c0,14.704,11.963,26.667,26.667,26.667s26.667-11.963,26.667-26.667
				C92.777,38.535,80.814,26.572,66.11,26.572z M66.11,69.906c-9.191,0-16.667-7.476-16.667-16.667
				c0-9.191,7.477-16.667,16.667-16.667s16.667,7.477,16.667,16.667S75.301,69.906,66.11,69.906z"/>
			<path d="M241.11,48.239h-106c-2.762,0-5,2.238-5,5c0,2.762,2.239,5,5,5h106c2.762,0,5-2.238,5-5
				C246.11,50.477,243.872,48.239,241.11,48.239z"/>
			<path d="M66.11,123.051c-14.704,0-26.667,11.963-26.667,26.667c0,14.704,11.963,26.667,26.667,26.667
				s26.667-11.963,26.667-26.667C92.777,135.014,80.814,123.051,66.11,123.051z M66.11,166.385c-9.19,0-16.667-7.477-16.667-16.667
				c0-9.19,7.477-16.667,16.667-16.667s16.667,7.477,16.667,16.667C82.777,158.908,75.3,166.385,66.11,166.385z"/>
			<path d="M241.11,144.718h-106c-2.762,0-5,2.238-5,5c0,2.762,2.239,5,5,5h106c2.762,0,5-2.238,5-5
				C246.11,146.956,243.872,144.718,241.11,144.718z"/>
			<path d="M66.11,219.529c-14.704,0-26.667,11.963-26.667,26.667c0,14.704,11.963,26.667,26.667,26.667
				s26.667-11.963,26.667-26.667S80.814,219.529,66.11,219.529z M66.11,262.863c-9.19,0-16.667-7.477-16.667-16.667
				c0-9.19,7.477-16.667,16.667-16.667s16.667,7.477,16.667,16.667C82.777,255.386,75.301,262.863,66.11,262.863z"/>
			<path d="M241.11,241.196h-106c-2.762,0-5,2.238-5,5c0,2.762,2.238,5,5,5h106c2.762,0,5-2.238,5-5
				C246.11,243.435,243.872,241.196,241.11,241.196z"/>
		</g>
	</g>
</g>
<g>
</g>
<g>
</g>
<g>
</g>
<g>
</g>
<g>
</g>
<g>
</g>
<g>
</g>
<g>
</g>
<g>
</g>
<g>
</g>
<g>
</g>
<g>
</g>
<g>
</g>
<g>
</g>
<g>
</g>
</svg>
