<?xml version="1.0" encoding="UTF-8" standalone="no"?>
<svg id="svg5153" xmlns:rdf="http://www.w3.org/1999/02/22-rdf-syntax-ns#" xmlns="http://www.w3.org/2000/svg" height="451.56mm" width="677.33mm" version="1.1" xmlns:cc="http://creativecommons.org/ns#" xmlns:dc="http://purl.org/dc/elements/1.1/" viewBox="0 0 2399.9999 1600">
<defs id="defs5155">
<pattern id="pattern5761" width="400.00009" patternUnits="userSpaceOnUse" patternTransform="translate(-1354.1 303.57)" height="400.00003">
<path id="path211" d="m0.0001 0v3.8086c3.1181 0.37439 6.1795 0.52595 9.1855 0.46094 0.028 0.01 0.054 0.0107 0.082 0.0137v-0.0156c7.1484-0.1649 13.974-1.5946 20.48-4.2675l-29.748-0.00004zm370.24 0c-1.7503 0.71898-3.4825 1.5081-5.1856 2.4102-13.234 7.0119-21.569 17.603-25.078 31.859-3.2882 13.253-1.0855 25.585 6.5332 36.879 7.6671 11.305 18.825 18.802 33.568 22.432 6.0505 1.4894 12.703 2.065 19.922 1.7715v-7.0234c-2.6434-0.24458-5.2919-0.67876-7.9453-1.3262-12.085-3.0008-21.164-9.5184-27.162-19.639-5.9796-10.09-7.4725-21.322-4.4238-33.602 2.7724-11.368 8.511-19.68 17.121-24.889 5.6542-3.3935 12.09-5.2312 19.328-5.5039 1.0334 0.1708 2.0608 0.31683 3.082 0.43945v-3.8086h-29.76zm-334.09 22.502c-4.3649 0.0799-8.4853 1.4913-12.34 4.25-5.6065 4.0128-9.3907 9.9464-11.301 17.811-0.9646 3.8137-1.2765 8.0188-1.0351 12.594l6.373-0.41602c0.041-2.0541 0.2051-3.7707 0.5645-5.2305 1.0899-4.4278 3.3863-7.8867 6.9023-10.221 3.4978-2.3644 7.2581-3.0662 11.248-2.084 4.3792 1.0779 7.7186 3.8628 10.068 8.3633 2.3497 4.5004 2.9509 9.1883 1.7109 14.121-2.2694 9.3239-9.2799 16.629-20.959 21.83-9.0234 4.0748-18.17 5.6612-27.385 4.8086v7.0234c3.7535-0.15262 7.6511-0.52613 11.717-1.1582 11.934-1.8358 23-5.381 33.227-10.656l4.8261-2.4238c11.888-6.1562 22.074-8.2169 30.541-6.1328 5.1759 1.2999 9.1688 3.9347 11.924 7.9414 2.7248 4.0251 3.5189 8.3484 2.3691 13.02-1.4493 5.8876-4.9999 10.356-10.701 13.391-5.7195 3.0045-11.78 3.7297-18.252 2.1367-8.1745-2.0123-14.247-7.3236-18.246-15.92l-6.3399 2.7988c5.771 14.606 15.769 23.674 30.074 27.195 9.7802 2.4075 18.728 1.5904 26.766-2.4434 8.0674-4.052 13.119-10.214 15.137-18.516 1.9044-7.7366 0.9498-14.655-2.8945-20.736-3.8746-6.0627-10.297-10.792-19.248-14.156 6.007-0.8178 10.506-2.2141 13.543-4.1758 3.0493-2.0103 6.5477-5.9464 10.531-11.752l3.0508-4.332c7.1509-10.496 13.317-15.095 18.377-13.85l1.4726-5.9844h0.01l-14.451-3.5586c-29.436-7.247-50.406-1.725-63.027 16.636-1.545-5.36-3.863-9.673-6.877-12.944-3.044-3.252-6.795-5.413-11.272-6.515-2.083-0.513-4.117-0.751-6.101-0.715zm63.17 6.373c0.6876-0.0104 1.3839-0.009 2.0879 0.004 4.1715 0.0786 8.6279 0.57289 13.371 1.4824-5.3994 2.4382-10.504 6.9359-15.408 13.547l-2.1289 2.7793c-4.566 6.075-9.5998 10.692-15.137 13.793-5.5002 3.1616-13.748 6.1637-24.688 9.0957l1.4199-5.6641c5.669-23.028 19.165-34.715 40.483-35.037zm130.28 33.242-3.5585 14.451c-7.2464 29.438-1.7243 50.406 16.637 63.027-5.3603 1.5448-9.6728 3.8651-12.943 6.8789-3.2522 3.0441-5.4138 6.7931-6.5156 11.27-1.6409 6.6661-0.4776 12.837 3.5351 18.443 4.0127 5.6065 9.9465 9.3887 17.811 11.299 3.8136 0.9646 8.0187 1.2766 12.594 1.0352l-0.416-6.3711c-2.0541-0.041-3.7687-0.20506-5.2285-0.56446-4.4278-1.0899-7.8885-3.3883-10.223-6.9043-2.3643-3.4978-3.0662-7.2562-2.084-11.246 1.0779-4.3792 3.8628-7.7186 8.3633-10.068 4.5004-2.3497 9.1883-2.9509 14.121-1.7109 9.3239 2.2694 16.631 9.28 21.832 20.959 5.2437 11.612 6.3866 23.425 3.4824 35.328-3.0008 12.085-9.5202 21.166-19.641 27.164-10.09 5.9796-21.32 7.4706-33.6 4.4219-11.368-2.7724-19.682-8.509-24.891-17.119-3.3935-5.6542-5.2312-12.09-5.5039-19.328 0.6922-4.1888 0.9867-8.277 0.9004-12.268 0-0.028 0.011-0.056 0.014-0.084h-0.016c-0.2094-9.0717-2.4241-17.631-6.6797-25.666-7.0119-13.234-17.603-21.571-31.859-25.08-13.253-3.2882-25.587-1.0853-36.881 6.5332-11.305 7.6673-18.798 18.827-22.428 33.57-2.2638 9.1963-2.463 19.753-0.6152 31.639 1.8358 11.934 5.381 22.998 10.656 33.225l2.4258 4.8281c6.1562 11.888 8.215 22.073 6.1309 30.539-1.2999 5.1761-3.9346 9.1726-7.9414 11.928-4.0251 2.7248-8.3485 3.5171-13.02 2.3672-5.8876-1.4493-10.356-5-13.391-10.701-3.0044-5.7195-3.7296-11.783-2.1367-18.254 2.0123-8.1745 7.3255-14.245 15.922-18.244l-2.8008-6.3418c-14.606 5.7712-23.672 15.771-27.193 30.076-2.4075 9.7801-1.5923 18.728 2.4414 26.766 4.052 8.0674 10.214 13.119 18.516 15.137 7.7365 1.9044 14.655 0.94977 20.736-2.8945 6.0628-3.8746 10.792-10.297 14.156-19.248 0.8178 6.0069 2.2142 10.504 4.1758 13.541 2.0103 3.0493 5.9483 6.5497 11.754 10.533l4.3321 3.0508c10.496 7.1509 15.093 13.317 13.848 18.377l5.9863 1.4707 3.5567-14.449c7.2464-29.438 1.7243-50.408-16.637-63.029 5.3601-1.5447 9.6728-3.8632 12.943-6.877 3.2522-3.0441 5.4137-6.795 6.5156-11.271 1.6409-6.6661 0.4777-12.835-3.5351-18.441-4.0127-5.6065-9.9464-9.3907-17.811-11.301-3.8136-0.9645-8.0187-1.2785-12.594-1.0371l0.418 6.375c2.0541 0.041 3.7688 0.20515 5.2285 0.56445 4.4278 1.09 7.8886 3.3863 10.223 6.9023 2.3644 3.4978 3.0623 7.2562 2.0801 11.246-1.0779 4.3791-3.8589 7.7205-8.3594 10.07-4.5005 2.3497-9.1923 2.949-14.125 1.709-9.3239-2.2695-16.628-9.28-21.83-20.959-5.2437-11.612-6.3867-23.427-3.4825-35.33 3.0008-12.085 9.5183-21.162 19.639-27.16 10.09-5.9796 21.322-7.4745 33.602-4.4258 11.367 2.7724 19.682 8.5109 24.891 17.121 3.3941 5.655 5.2317 12.093 5.5039 19.332-0.6912 4.1835-0.9877 8.2662-0.9023 12.252-0.01 0.032-0.01 0.0637-0.014 0.0957l0.019 0.01c0.2095 9.0714 2.4221 17.632 6.6778 25.666 7.0116 13.234 17.603 21.569 31.859 25.078 13.253 3.2882 25.585 1.0874 36.879-6.5312 11.305-7.6672 18.802-18.827 22.432-33.57 2.2638-9.1963 2.4611-19.751 0.6133-31.637-1.8358-11.934-5.3811-23-10.656-33.227l-2.4238-4.8262c-6.1562-11.888-8.217-22.075-6.1328-30.541 1.2999-5.1759 3.9347-9.1707 7.9414-11.926 4.0251-2.7248 8.3504-3.5189 13.022-2.3691 5.8876 1.4493 10.354 4.9999 13.389 10.701 3.0045 5.7195 3.7297 11.782 2.1367 18.254-2.0123 8.1745-7.3236 14.247-15.92 18.246l2.7988 6.3398c14.606-5.771 23.674-15.769 27.195-30.074 2.4075-9.7802 1.5903-18.73-2.4434-26.768-4.052-8.0674-10.214-13.119-18.516-15.137-7.7366-1.9044-14.655-0.94977-20.736 2.8945-6.0625 3.8746-10.792 10.297-14.156 19.248-0.8179-6.007-2.2142-10.506-4.1758-13.543-2.0104-3.0493-5.9463-6.5457-11.752-10.529l-4.3321-3.0527c-10.496-7.1509-15.095-13.315-13.85-18.375l-5.9844-1.4727v-0.01zm0.7637 23.1c2.4381 5.3994 6.9359 10.506 13.547 15.41l2.7793 2.1289c6.0751 4.566 10.692 9.5979 13.793 15.135 3.1617 5.5002 6.1636 13.75 9.0957 24.689l-5.6641-1.4199c-28.173-6.935-39.372-25.587-33.551-55.943zm-99.939 172.2 5.664 1.4199c28.173 6.9349 39.372 25.585 33.551 55.941-2.4381-5.3995-6.9339-10.504-13.545-15.408l-2.7793-2.1289c-6.0751-4.566-10.694-9.5998-13.795-15.137-3.1616-5.5001-6.1636-13.748-9.0957-24.688zm187.78 15.693c-5.7158 0.006-11.096 1.27-16.119 3.791-8.0674 4.052-13.119 10.214-15.137 18.516-1.9044 7.7366-0.9498 14.655 2.8945 20.736 3.8746 6.0627 10.299 10.792 19.25 14.156-6.0069 0.8178-10.506 2.2142-13.543 4.1758-3.0493 2.0103-6.5477 5.9483-10.531 11.754l-3.0528 4.332c-7.1509 10.496-13.315 15.093-18.375 13.848l-1.4726 5.9863 14.451 3.5566c29.438 7.2464 50.406 1.7243 63.027-16.637 1.5447 5.3602 3.8652 9.6728 6.8789 12.943 3.0441 3.2522 6.795 5.4137 11.271 6.5156 6.6661 1.6409 12.835 0.47559 18.441-3.5371 5.6065-4.0127 9.3887-9.9444 11.299-17.809 0.9645-3.8136 1.2785-8.0188 1.0371-12.594l-6.373 0.41797c-0.041 2.0541-0.20515 3.7688-0.56445 5.2285-1.09 4.4278-3.3863 7.8886-6.9023 10.223-3.4978 2.3644-7.2562 3.0622-11.246 2.0801-4.3791-1.0779-7.7205-3.8609-10.07-8.3613-2.3497-4.5005-2.949-9.1903-1.709-14.123 2.2695-9.324 9.28-16.629 20.959-21.83 9.0233-4.0748 18.169-5.6612 27.383-4.8086v-7.0234c-3.7562 0.15202-7.6574 0.52756-11.727 1.1602-11.934 1.8359-22.998 5.381-33.225 10.656l-4.8281 2.4258c-11.888 6.1563-22.073 8.215-30.539 6.1309-5.1761-1.3-9.1726-3.9347-11.928-7.9414-2.7248-4.0252-3.5171-8.3484-2.3672-13.02 1.4493-5.8875 5-10.356 10.701-13.391 5.7195-3.0043 11.782-3.7297 18.254-2.1367 8.1745 2.0122 14.245 7.3256 18.244 15.922l6.3418-2.8008c-5.7712-14.606-15.771-23.674-30.076-27.195-3.6676-0.90281-7.219-1.3513-10.648-1.3476zm-313.1 31.46c-1.6627-0.0321-3.3702 0.004-5.0996 0.0742v7.0234c2.6433 0.24458 5.2919 0.67876 7.9453 1.3262 12.085 3.0007 21.162 9.5183 27.16 19.639 5.9796 10.09 7.4744 21.322 4.4257 33.602-2.7724 11.367-8.5089 19.682-17.119 24.891-5.655 3.394-12.093 5.2318-19.332 5.5039-1.0328-0.17063-2.0596-0.31672-3.0801-0.43945v3.8106h29.748c1.7502-0.71902 3.4824-1.51 5.1856-2.4121 13.234-7.0119 21.571-17.603 25.08-31.859 3.2882-13.253 1.0853-25.587-6.5332-36.881-7.6673-11.305-18.827-18.799-33.57-22.428-4.5982-1.1318-9.5366-1.7478-14.811-1.8496zm337.48 25.852-1.4199 5.6641c-6.9349 28.173-25.585 39.372-55.942 33.551 5.3995-2.4381 10.504-6.9358 15.408-13.547l2.1289-2.7773c4.566-6.075 9.6017-10.694 15.139-13.795 5.5001-3.1616 13.746-6.1635 24.686-9.0957zm48.148 65.291-0.01 0.0176c-7.1486 0.16502-13.975 1.5966-20.482 4.2695h29.76v-3.8106c-3.1134-0.37444-6.1701-0.52728-9.1719-0.46289-0.032-0.01-0.0637-0.009-0.0957-0.0137z"/>
</pattern>
</defs>
<g id="layer1" transform="translate(1354.1 896.43)">
<rect id="rect6482" height="1600" width="2400" y="-896.43" x="-1354.1" fill="url(#pattern5761)"/>
</g>
</svg>
