<?xml version="1.0" encoding="iso-8859-1"?>
<!-- Generator: Adobe Illustrator 19.0.0, SVG Export Plug-In . SVG Version: 6.00 Build 0)  -->
<svg version="1.1" id="Capa_1" xmlns="http://www.w3.org/2000/svg" xmlns:xlink="http://www.w3.org/1999/xlink" x="0px" y="0px"
	 viewBox="0 0 60 60" style="enable-background:new 0 0 60 60;" xml:space="preserve">
<g>
	<g>
		<path d="M58,32H2c-1.2,0-2,0.8-2,2v24c0,1.2,0.8,2,2,2h56c1.2,0,2-0.8,2-2V34C60,32.8,59.2,32,58,32z M58,58H2V34h56V58z"/>
		<rect x="4" y="36" width="4" height="2"/>
		<rect x="4" y="54" width="4" height="2"/>
		<rect x="10" y="54" width="4" height="2"/>
		<rect x="16" y="54" width="28" height="2"/>
		<rect x="10" y="36" width="4" height="2"/>
		<rect x="16" y="36" width="4" height="2"/>
		<rect x="22" y="36" width="4" height="2"/>
		<rect x="28" y="36" width="4" height="2"/>
		<rect x="34" y="36" width="4" height="2"/>
		<rect x="40" y="36" width="4" height="2"/>
		<rect x="46" y="36" width="4" height="2"/>
		<rect x="46" y="54" width="4" height="2"/>
		<rect x="52" y="54" width="4" height="2"/>
		<rect x="52" y="36" width="4" height="2"/>
		<rect x="5" y="41" width="2" height="2"/>
		<rect x="9" y="41" width="2" height="2"/>
		<rect x="13" y="41" width="2" height="2"/>
		<rect x="17" y="41" width="2" height="2"/>
		<rect x="21" y="41" width="2" height="2"/>
		<rect x="25" y="41" width="2" height="2"/>
		<rect x="29" y="41" width="2" height="2"/>
		<rect x="33" y="41" width="2" height="2"/>
		<rect x="37" y="41" width="2" height="2"/>
		<rect x="41" y="41" width="2" height="2"/>
		<rect x="45" y="41" width="2" height="2"/>
		<rect x="49" y="41" width="2" height="2"/>
		<rect x="53" y="41" width="2" height="2"/>
		<rect x="5" y="45" width="2" height="2"/>
		<rect x="9" y="45" width="2" height="2"/>
		<rect x="13" y="45" width="2" height="2"/>
		<rect x="17" y="45" width="2" height="2"/>
		<rect x="21" y="45" width="2" height="2"/>
		<rect x="25" y="45" width="2" height="2"/>
		<rect x="29" y="45" width="2" height="2"/>
		<rect x="33" y="45" width="2" height="2"/>
		<rect x="37" y="45" width="2" height="2"/>
		<rect x="41" y="45" width="2" height="2"/>
		<rect x="45" y="45" width="2" height="2"/>
		<rect x="5" y="49" width="2" height="2"/>
		<rect x="9" y="49" width="2" height="2"/>
		<rect x="13" y="49" width="2" height="2"/>
		<rect x="17" y="49" width="2" height="2"/>
		<rect x="21" y="49" width="2" height="2"/>
		<rect x="25" y="49" width="2" height="2"/>
		<rect x="29" y="49" width="2" height="2"/>
		<rect x="33" y="49" width="2" height="2"/>
		<rect x="37" y="49" width="2" height="2"/>
		<rect x="41" y="49" width="2" height="2"/>
		<rect x="45" y="49" width="2" height="2"/>
		<path d="M49,51h5c0.6,0,1-0.4,1-1v-5h-2v4h-4V51z"/>
		<rect x="49" y="45" width="2" height="2"/>
		<path d="M59,0H1C0.4,0,0,0.4,0,1v28h2V10h56v19h2V1C60,0.4,59.6,0,59,0z M2,8V2h56v6H2z"/>
		<rect x="4" y="4" width="2" height="2"/>
		<rect x="8" y="4" width="2" height="2"/>
		<rect x="12" y="4" width="2" height="2"/>
		<rect x="12" y="12" width="2" height="17"/>
		<rect x="5" y="13" width="4" height="2"/>
		<rect x="5" y="19" width="4" height="2"/>
		<rect x="5" y="25" width="4" height="2"/>
		<rect x="17" y="13" width="4" height="2"/>
		<rect x="23" y="13" width="16" height="2"/>
		<rect x="41" y="13" width="4" height="2"/>
		<rect x="47" y="13" width="8" height="2"/>
		<rect x="17" y="19" width="14" height="2"/>
		<rect x="27" y="25" width="4" height="2"/>
		<rect x="17" y="25" width="8" height="2"/>
		<path d="M38.3,19.3l-3,3c-0.4,0.4-0.4,1,0,1.4l3,3l1.4-1.4L37.4,23l2.3-2.3L38.3,19.3z"/>
		<path d="M49.7,26.7l3-3c0.4-0.4,0.4-1,0-1.4l-3-3l-1.4,1.4l2.3,2.3l-2.3,2.3L49.7,26.7z"/>
		<rect x="39.545" y="21.998" transform="matrix(0.4472 -0.8944 0.8944 0.4472 3.7502 52.0633)" width="8.9" height="2"/>
	</g>
</g>
<g>
</g>
<g>
</g>
<g>
</g>
<g>
</g>
<g>
</g>
<g>
</g>
<g>
</g>
<g>
</g>
<g>
</g>
<g>
</g>
<g>
</g>
<g>
</g>
<g>
</g>
<g>
</g>
<g>
</g>
</svg>
