<?xml version="1.0" encoding="utf-8"?>
<!-- Generator: Adobe Illustrator 18.0.0, SVG Export Plug-In . SVG Version: 6.00 Build 0)  -->
<!DOCTYPE svg PUBLIC "-//W3C//DTD SVG 1.1//EN" "http://www.w3.org/Graphics/SVG/1.1/DTD/svg11.dtd">
<svg version="1.1" id="Layer_1" xmlns="http://www.w3.org/2000/svg" xmlns:xlink="http://www.w3.org/1999/xlink" x="0px" y="0px"
	 viewBox="0 0 2560 1600" enable-background="new 0 0 2560 1600" xml:space="preserve">
<pattern  width="248" height="248" patternUnits="userSpaceOnUse" id="New_Pattern" viewBox="33.1943 -281.1944 248 248" overflow="visible">
	<g>
		<polygon fill="none" points="33.1943,-281.1944 281.1943,-281.1944 281.1943,-33.1944 33.1943,-33.1944 		"/>
		<g>
			<path d="M157.1943-10.439c0.1348,0.1273,0.2696,0.2545,0.4044,0.3818c0.9018,0.8513,1.7879,1.7164,2.6674,2.5907
				c2.4359,2.4216,4.7826,4.921,7.0879,7.4666c-0.3461-4.6789-0.8067-9.3503-1.5232-13.9885
				c-0.4096-2.6518-0.8451-5.2976-1.3577-7.9318c-0.495-2.5438-1.0609-5.0732-1.6598-7.5942
				c-0.234-0.9851-0.4751-1.9675-0.7314-2.9471c-0.0322-0.1232-0.0368-0.3212-0.1408-0.4061
				c-0.0304-0.0248-0.0608-0.0496-0.0912-0.0744c-0.0248-0.0304-0.0496-0.0608-0.0744-0.0912
				c-0.0849-0.104-0.2829-0.1086-0.4061-0.1408c-0.9796-0.2563-1.962-0.4974-2.9471-0.7314
				c-0.4091-0.0972-0.8183-0.1935-1.2279-0.2888c-0.4095,0.0953-0.8188,0.1916-1.2279,0.2888
				c-0.9851,0.234-1.9675,0.4751-2.9471,0.7314c-0.1232,0.0322-0.3212,0.0368-0.4061,0.1408
				c-0.0248,0.0304-0.0496,0.0608-0.0744,0.0912c-0.0304,0.0248-0.0608,0.0496-0.0912,0.0744
				c-0.104,0.0849-0.1086,0.2829-0.1408,0.4061c-0.2563,0.9796-0.4974,1.962-0.7314,2.9471
				c-0.5989,2.5211-1.1648,5.0504-1.6598,7.5942c-0.5126,2.6342-0.9481,5.28-1.3577,7.9318
				c-0.7165,4.6382-1.1771,9.3096-1.5232,13.9885c2.3053-2.5456,4.6519-5.045,7.0879-7.4666
				c0.8795-0.8743,1.7656-1.7393,2.6674-2.5907C156.9247-10.1845,157.0595-10.3117,157.1943-10.439z"/>
		</g>
		<g>
			<path d="M303.9497-157.1943c0.1273-0.1348,0.2545-0.2696,0.3817-0.4044c0.8513-0.9018,1.7164-1.7879,2.5907-2.6674
				c2.4216-2.4359,4.921-4.7826,7.4666-7.0879c-4.6789,0.3461-9.3503,0.8067-13.9885,1.5232
				c-2.6518,0.4096-5.2976,0.8451-7.9318,1.3577c-2.5438,0.495-5.0732,1.0609-7.5942,1.6598
				c-0.9851,0.234-1.9676,0.4751-2.9471,0.7314c-0.1232,0.0322-0.3212,0.0368-0.4061,0.1408
				c-0.0248,0.0304-0.0496,0.0608-0.0744,0.0912c-0.0304,0.0248-0.0608,0.0496-0.0912,0.0744
				c-0.104,0.0849-0.1086,0.2829-0.1408,0.4061c-0.2563,0.9796-0.4974,1.962-0.7314,2.9471
				c-0.0972,0.4091-0.1935,0.8183-0.2888,1.2279c0.0953,0.4095,0.1916,0.8188,0.2888,1.2279
				c0.234,0.9851,0.4751,1.9675,0.7314,2.9471c0.0322,0.1232,0.0368,0.3212,0.1408,0.4061
				c0.0304,0.0248,0.0608,0.0496,0.0912,0.0744c0.0248,0.0304,0.0496,0.0608,0.0744,0.0912
				c0.0849,0.104,0.2829,0.1086,0.4061,0.1408c0.9796,0.2563,1.962,0.4974,2.9471,0.7314c2.5211,0.5989,5.0504,1.1648,7.5942,1.6598
				c2.6342,0.5126,5.28,0.9481,7.9318,1.3577c4.6382,0.7165,9.3096,1.1771,13.9885,1.5232
				c-2.5456-2.3053-5.045-4.6519-7.4666-7.0879c-0.8743-0.8795-1.7393-1.7656-2.5907-2.6674
				C304.2042-156.9247,304.077-157.0595,303.9497-157.1943z"/>
		</g>
		<g>
			<path d="M162.8203-162.8203c-1.8433-1.2386-3.7172-2.4325-5.626-3.5626c-1.9088,1.1301-3.7826,2.324-5.626,3.5626
				c-1.2386,1.8433-2.4325,3.7172-3.5626,5.626c1.1301,1.9088,2.324,3.7826,3.5626,5.626c1.8433,1.2386,3.7172,2.4325,5.626,3.5626
				c1.9088-1.1301,3.7826-2.324,5.626-3.5626c1.2386-1.8433,2.4325-3.7172,3.5626-5.626
				C165.2528-159.1031,164.0589-160.977,162.8203-162.8203z"/>
			<path d="M157.1943-258.439c0.1348,0.1273,0.2696,0.2545,0.4044,0.3817c0.9018,0.8513,1.7879,1.7164,2.6674,2.5907
				c2.4359,2.4216,4.7826,4.921,7.0879,7.4666c-0.3461-4.6789-0.8067-9.3503-1.5232-13.9885
				c-0.4096-2.6518-0.8451-5.2976-1.3577-7.9318c-0.495-2.5438-1.0609-5.0732-1.6598-7.5942
				c-0.234-0.9851-0.4751-1.9676-0.7314-2.9471c-0.0322-0.1232-0.0368-0.3212-0.1408-0.4061
				c-0.0304-0.0248-0.0608-0.0496-0.0912-0.0744c-0.0248-0.0304-0.0496-0.0608-0.0744-0.0912
				c-0.0849-0.104-0.2829-0.1086-0.4061-0.1408c-0.9796-0.2563-1.962-0.4974-2.9471-0.7314
				c-0.4091-0.0972-0.8183-0.1935-1.2279-0.2888c-0.4095,0.0953-0.8188,0.1916-1.2279,0.2888
				c-0.9851,0.234-1.9675,0.4751-2.9471,0.7314c-0.1232,0.0322-0.3212,0.0368-0.4061,0.1408
				c-0.0248,0.0304-0.0496,0.0608-0.0744,0.0912c-0.0304,0.0248-0.0608,0.0496-0.0912,0.0744
				c-0.104,0.0849-0.1086,0.2829-0.1408,0.4061c-0.2563,0.9796-0.4974,1.962-0.7314,2.9471
				c-0.5989,2.5211-1.1648,5.0504-1.6598,7.5942c-0.5126,2.6342-0.9481,5.28-1.3577,7.9318
				c-0.7165,4.6382-1.1771,9.3096-1.5232,13.9885c2.3053-2.5456,4.6519-5.045,7.0879-7.4666
				c0.8795-0.8743,1.7656-1.7394,2.6674-2.5907C156.9247-258.1844,157.0595-258.3117,157.1943-258.439z"/>
			<path d="M258.439-157.1943c-0.1273,0.1348-0.2545,0.2696-0.3817,0.4044c-0.8513,0.9018-1.7164,1.7879-2.5907,2.6674
				c-2.4216,2.4359-4.921,4.7826-7.4666,7.0879c4.6789-0.3461,9.3503-0.8067,13.9885-1.5232
				c2.6518-0.4096,5.2976-0.8451,7.9318-1.3577c2.5438-0.495,5.0732-1.0609,7.5942-1.6598c0.9851-0.234,1.9676-0.4751,2.9471-0.7314
				c0.1232-0.0322,0.3212-0.0368,0.4061-0.1408c0.0248-0.0304,0.0496-0.0608,0.0744-0.0912
				c0.0304-0.0248,0.0608-0.0496,0.0912-0.0744c0.104-0.0849,0.1086-0.2829,0.1408-0.4061c0.2563-0.9796,0.4974-1.962,0.7314-2.9471
				c0.0972-0.4091,0.1935-0.8183,0.2888-1.2279c-0.0953-0.4095-0.1916-0.8188-0.2888-1.2279
				c-0.234-0.9851-0.4751-1.9675-0.7314-2.9471c-0.0322-0.1232-0.0368-0.3212-0.1408-0.4061
				c-0.0304-0.0248-0.0608-0.0496-0.0912-0.0744c-0.0248-0.0304-0.0496-0.0608-0.0744-0.0912
				c-0.0849-0.104-0.2829-0.1086-0.4061-0.1408c-0.9796-0.2563-1.962-0.4974-2.9471-0.7314
				c-2.5211-0.5989-5.0504-1.1648-7.5942-1.6598c-2.6342-0.5126-5.28-0.9481-7.9318-1.3577
				c-4.6382-0.7165-9.3096-1.1771-13.9885-1.5232c2.5456,2.3053,5.045,4.6519,7.4666,7.0879
				c0.8743,0.8795,1.7394,1.7656,2.5907,2.6674C258.1844-157.4639,258.3117-157.3291,258.439-157.1943z"/>
			<path d="M157.1943-55.9497c-0.1348-0.1273-0.2696-0.2545-0.4044-0.3818c-0.9018-0.8513-1.7879-1.7164-2.6674-2.5907
				c-2.4359-2.4216-4.7826-4.921-7.0879-7.4666c0.3461,4.6789,0.8067,9.3503,1.5232,13.9885
				c0.4096,2.6517,0.8451,5.2976,1.3577,7.9318c0.495,2.5438,1.0609,5.0732,1.6598,7.5942c0.234,0.9851,0.4751,1.9675,0.7314,2.9471
				c0.0322,0.1232,0.0368,0.3212,0.1408,0.4061c0.0304,0.0248,0.0608,0.0496,0.0912,0.0744
				c0.0248,0.0304,0.0496,0.0608,0.0744,0.0912c0.0849,0.104,0.2829,0.1086,0.4061,0.1408c0.9796,0.2563,1.962,0.4974,2.9471,0.7314
				c0.4091,0.0972,0.8183,0.1935,1.2279,0.2888c0.4095-0.0953,0.8188-0.1916,1.2279-0.2888
				c0.9851-0.234,1.9675-0.4751,2.9471-0.7314c0.1232-0.0322,0.3212-0.0368,0.4061-0.1408
				c0.0248-0.0304,0.0496-0.0608,0.0744-0.0912c0.0304-0.0248,0.0608-0.0496,0.0912-0.0744
				c0.104-0.0849,0.1086-0.2829,0.1408-0.4061c0.2563-0.9796,0.4974-1.962,0.7314-2.9471c0.5989-2.5211,1.1648-5.0504,1.6598-7.5942
				c0.5126-2.6342,0.9481-5.28,1.3577-7.9318c0.7165-4.6382,1.1771-9.3096,1.5232-13.9885
				c-2.3053,2.5456-4.6519,5.045-7.0879,7.4666c-0.8795,0.8743-1.7656,1.7393-2.6674,2.5907
				C157.4639-56.2042,157.3291-56.077,157.1943-55.9497z"/>
			<path d="M55.9497-157.1943c0.1273-0.1348,0.2545-0.2696,0.3818-0.4044c0.8513-0.9018,1.7164-1.7879,2.5907-2.6674
				c2.4216-2.4359,4.921-4.7826,7.4666-7.0879c-4.6789,0.3461-9.3503,0.8067-13.9885,1.5232
				c-2.6517,0.4096-5.2976,0.8451-7.9318,1.3577c-2.5438,0.495-5.0732,1.0609-7.5942,1.6598
				c-0.9851,0.234-1.9675,0.4751-2.9471,0.7314c-0.1232,0.0322-0.3212,0.0368-0.4061,0.1408
				c-0.0248,0.0304-0.0496,0.0608-0.0744,0.0912c-0.0304,0.0248-0.0608,0.0496-0.0912,0.0744
				c-0.104,0.0849-0.1086,0.2829-0.1408,0.4061c-0.2563,0.9796-0.4974,1.962-0.7314,2.9471
				c-0.0972,0.4091-0.1935,0.8183-0.2888,1.2279c0.0953,0.4095,0.1916,0.8188,0.2888,1.2279
				c0.234,0.9851,0.4751,1.9675,0.7314,2.9471c0.0322,0.1232,0.0368,0.3212,0.1408,0.4061
				c0.0304,0.0248,0.0608,0.0496,0.0912,0.0744c0.0248,0.0304,0.0496,0.0608,0.0744,0.0912
				c0.0849,0.104,0.2829,0.1086,0.4061,0.1408c0.9796,0.2563,1.962,0.4974,2.9471,0.7314c2.5211,0.5989,5.0504,1.1648,7.5942,1.6598
				c2.6342,0.5126,5.28,0.9481,7.9318,1.3577c4.6382,0.7165,9.3096,1.1771,13.9885,1.5232
				c-2.5456-2.3053-5.045-4.6519-7.4666-7.0879c-0.8743-0.8795-1.7393-1.7656-2.5907-2.6674
				C56.2042-156.9247,56.077-157.0595,55.9497-157.1943z"/>
			<path d="M157.1943-226.3265c0.0107-0.1878,0.0211-0.3756,0.031-0.5634c0.0013-0.0242,0.0026-0.0483,0.0038-0.0725
				c-0.0116-0.0146-0.0232-0.0293-0.0349-0.0439c-0.0116,0.0146-0.0233,0.0292-0.0349,0.0439
				c0.0013,0.0242,0.0026,0.0483,0.0038,0.0725C157.1733-226.7021,157.1836-226.5143,157.1943-226.3265z"/>
			<path d="M226.3265-157.1943c0.1878,0.0107,0.3756,0.0211,0.5634,0.031c0.0242,0.0013,0.0483,0.0026,0.0725,0.0038
				c0.0146-0.0116,0.0293-0.0232,0.0439-0.0349c-0.0146-0.0116-0.0292-0.0233-0.0439-0.0349
				c-0.0242,0.0013-0.0483,0.0026-0.0725,0.0038C226.7021-157.2154,226.5143-157.2051,226.3265-157.1943z"/>
			<path d="M157.1943-88.0621c-0.0107,0.1878-0.0211,0.3756-0.031,0.5634c-0.0013,0.0242-0.0026,0.0483-0.0038,0.0725
				c0.0116,0.0146,0.0232,0.0292,0.0349,0.0439c0.0116-0.0146,0.0233-0.0292,0.0349-0.0439
				c-0.0013-0.0242-0.0026-0.0483-0.0038-0.0725C157.2154-87.6866,157.2051-87.8744,157.1943-88.0621z"/>
			<path d="M88.0621-157.1943c-0.1878-0.0107-0.3756-0.0211-0.5634-0.031c-0.0242-0.0013-0.0483-0.0026-0.0725-0.0038
				c-0.0146,0.0116-0.0292,0.0232-0.0439,0.0349c0.0146,0.0116,0.0292,0.0233,0.0439,0.0349
				c0.0242-0.0013,0.0483-0.0026,0.0725-0.0038C87.6866-157.1733,87.8744-157.1836,88.0621-157.1943z"/>
			<path d="M155.6481-187.0217c-0.7469,2.022-1.4219,4.0715-2.0866,6.121c-0.3826,1.1798-0.7339,2.3682-1.0835,3.5581
				c-0.1358,0.4621-0.2741,0.9236-0.4053,1.387c-0.0426,0.1505-0.2511,0.2147-0.3787,0.2919
				c-2.0273,1.2258-4.0311,2.4811-6.0203,3.7678c-0.6419,0.4152-1.2773,0.8404-1.9081,1.2727
				c-0.4323,0.6308-0.8575,1.2662-1.2727,1.9081c-1.2868,1.9892-2.542,3.993-3.7678,6.0203
				c-0.0772,0.1276-0.1414,0.3361-0.2919,0.3787c-0.4634,0.1312-0.9249,0.2696-1.387,0.4053
				c-1.1899,0.3496-2.3784,0.7009-3.5581,1.0835c-2.0495,0.6647-4.099,1.3397-6.121,2.0866
				c-1.0804,0.4976-2.1513,1.0165-3.2167,1.5463c1.0654,0.5298,2.1362,1.0487,3.2167,1.5463
				c2.022,0.7469,4.0715,1.4219,6.121,2.0866c1.1798,0.3826,2.3682,0.7339,3.5581,1.0835c0.4621,0.1358,0.9236,0.2741,1.387,0.4053
				c0.1505,0.0426,0.2147,0.2511,0.2919,0.3787c1.2258,2.0273,2.4811,4.0311,3.7678,6.0203
				c0.4152,0.6419,0.8404,1.2773,1.2727,1.9081c0.6308,0.4323,1.2662,0.8575,1.9081,1.2727c1.9892,1.2868,3.993,2.542,6.0203,3.7678
				c0.1276,0.0772,0.3361,0.1414,0.3787,0.2919c0.1312,0.4634,0.2696,0.9249,0.4053,1.387
				c0.3496,1.1899,0.7009,2.3784,1.0835,3.5581c0.6647,2.0495,1.3397,4.099,2.0866,6.121c0.4976,1.0804,1.0165,2.1513,1.5463,3.2167
				c0.5298-1.0654,1.0487-2.1362,1.5463-3.2167c0.7469-2.022,1.4219-4.0715,2.0866-6.121c0.3826-1.1798,0.7339-2.3682,1.0835-3.5581
				c0.1358-0.4621,0.2741-0.9236,0.4053-1.387c0.0426-0.1505,0.2511-0.2147,0.3787-0.2919
				c2.0273-1.2258,4.0311-2.4811,6.0203-3.7678c0.6419-0.4152,1.2773-0.8404,1.9081-1.2727
				c0.4323-0.6308,0.8575-1.2662,1.2727-1.9081c1.2868-1.9892,2.542-3.993,3.7678-6.0203c0.0772-0.1276,0.1414-0.3361,0.2919-0.3787
				c0.4634-0.1312,0.9249-0.2696,1.387-0.4053c1.1899-0.3496,2.3784-0.7009,3.5581-1.0835c2.0495-0.6647,4.099-1.3397,6.121-2.0866
				c1.0804-0.4976,2.1513-1.0165,3.2167-1.5463c-1.0654-0.5298-2.1362-1.0487-3.2167-1.5463
				c-2.022-0.7469-4.0715-1.4219-6.121-2.0866c-1.1798-0.3826-2.3682-0.7339-3.5581-1.0835
				c-0.4621-0.1358-0.9236-0.2741-1.387-0.4053c-0.1505-0.0426-0.2147-0.2511-0.2919-0.3787
				c-1.2258-2.0273-2.4811-4.0311-3.7678-6.0203c-0.4152-0.6419-0.8404-1.2773-1.2727-1.9081
				c-0.6308-0.4323-1.2662-0.8575-1.9081-1.2727c-1.9892-1.2868-3.993-2.542-6.0203-3.7678
				c-0.1276-0.0772-0.3361-0.1414-0.3787-0.2919c-0.1312-0.4634-0.2696-0.9249-0.4053-1.387
				c-0.3496-1.1899-0.7009-2.3784-1.0835-3.5581c-0.6647-2.0495-1.3397-4.099-2.0866-6.121
				c-0.4976-1.0804-1.0165-2.1513-1.5463-3.2167C156.6646-189.173,156.1456-188.1022,155.6481-187.0217z M177.4929-177.3646
				c0.7561,1.1121,1.5105,2.2253,2.2572,3.3438c0.7454,1.1166,1.4475,2.2643,2.1685,3.3968c1.3872,2.179,2.6599,4.436,3.9219,6.6888
				c0.6471,1.155,1.2741,2.3225,1.8836,3.4988c1.2628-0.4008,2.5317-0.7829,3.806-1.1421c2.4854-0.7006,4.9813-1.3966,7.5029-1.9565
				c1.3107-0.291,2.6187-0.606,3.9353-0.8685c1.3188-0.2629,2.6395-0.5166,3.9605-0.7684c2.6655-0.4605,5.3349-0.8694,8.0152-1.2337
				c2.5911-0.3522,5.1976-0.5913,7.8026-0.8117c2.3414-0.1981,4.6927-0.3424,7.0414-0.4193c0.1222-0.004,0.3403-0.0553,0.4588-0.015
				c0.0455,0.0155,0.0978,0.0745,0.1353,0.1031c0.3081,0.2349,0.6161,0.4697,0.9242,0.7046c0.977,0.7448,1.941,1.503,2.8982,2.2731
				c2.0102,1.6171,4.0033,3.262,5.9257,4.9831c0.5555,0.4973,1.111,0.9946,1.6664,1.4919
				c-4.4277-0.1339-8.8535-0.1488-13.2797,0.059c-3.561,0.1673-7.1275,0.435-10.6751,0.8424
				c3.5476,0.4074,7.1141,0.6752,10.6751,0.8424c4.4262,0.2079,8.852,0.1929,13.2797,0.059
				c-0.5555,0.4973-1.111,0.9946-1.6664,1.4919c-1.9225,1.7211-3.9155,3.3661-5.9257,4.9831
				c-0.9572,0.77-1.9213,1.5283-2.8982,2.2731c-0.3081,0.2349-0.6161,0.4697-0.9242,0.7046
				c-0.0375,0.0286-0.0898,0.0877-0.1353,0.1031c-0.1185,0.0402-0.3366-0.011-0.4588-0.015c-2.3487-0.0769-4.7-0.2212-7.0414-0.4193
				c-2.605-0.2204-5.2114-0.4595-7.8026-0.8117c-2.6803-0.3643-5.3497-0.7731-8.0152-1.2337
				c-1.321-0.2517-2.6416-0.5054-3.9605-0.7684c-1.3166-0.2625-2.6246-0.5775-3.9353-0.8685
				c-2.5217-0.5599-5.0175-1.2559-7.5029-1.9565c-1.2743-0.3592-2.5432-0.7413-3.806-1.1421
				c-0.6095,1.1763-1.2366,2.3437-1.8836,3.4988c-1.2621,2.2528-2.5347,4.5098-3.9219,6.6888
				c-0.721,1.1326-1.4231,2.2802-2.1685,3.3968c-0.7466,1.1185-1.5011,2.2317-2.2572,3.3438
				c-0.0177,0.0251-0.0354,0.0501-0.0531,0.0752c-0.0251,0.0177-0.0501,0.0354-0.0752,0.0531
				c-1.1121,0.7561-2.2253,1.5105-3.3438,2.2572c-1.1166,0.7454-2.2643,1.4475-3.3968,2.1685
				c-2.179,1.3872-4.436,2.6599-6.6888,3.9219c-1.155,0.6471-2.3225,1.2741-3.4988,1.8836
				c0.4008,1.2628,0.7829,2.5317,1.1421,3.8059c0.7006,2.4854,1.3966,4.9813,1.9565,7.5029c0.291,1.3107,0.606,2.6187,0.8685,3.9353
				c0.2629,1.3188,0.5166,2.6395,0.7684,3.9604c0.4605,2.6655,0.8694,5.3349,1.2337,8.0152
				c0.3522,2.5912,0.5913,5.1976,0.8117,7.8026c0.1981,2.3414,0.3424,4.6927,0.4193,7.0414c0.004,0.1222,0.0553,0.3403,0.015,0.4588
				c-0.0155,0.0455-0.0745,0.0978-0.1031,0.1353c-0.2349,0.3081-0.4697,0.6161-0.7046,0.9242
				c-0.7448,0.977-1.503,1.941-2.2731,2.8982c-1.6171,2.0102-3.262,4.0033-4.9831,5.9257c-0.4973,0.5555-0.9946,1.111-1.4919,1.6664
				c0.1339-4.4277,0.1488-8.8535-0.059-13.2797c-0.1673-3.561-0.435-7.1275-0.8424-10.6751
				c-0.4074,3.5476-0.6752,7.1141-0.8424,10.6751c-0.2079,4.4262-0.1929,8.852-0.059,13.2797
				c-0.4973-0.5555-0.9946-1.111-1.4919-1.6664c-1.7211-1.9225-3.3661-3.9156-4.9831-5.9257
				c-0.77-0.9572-1.5283-1.9213-2.2731-2.8982c-0.2349-0.3081-0.4697-0.6161-0.7046-0.9242
				c-0.0286-0.0375-0.0877-0.0898-0.1031-0.1353c-0.0402-0.1185,0.011-0.3366,0.015-0.4588c0.0769-2.3487,0.2212-4.7,0.4193-7.0414
				c0.2204-2.605,0.4595-5.2114,0.8117-7.8026c0.3643-2.6802,0.7731-5.3497,1.2337-8.0152c0.2517-1.321,0.5054-2.6416,0.7684-3.9604
				c0.2625-1.3166,0.5775-2.6246,0.8685-3.9353c0.5599-2.5217,1.2559-5.0175,1.9565-7.5029
				c0.3592-1.2743,0.7413-2.5432,1.1421-3.8059c-1.1763-0.6095-2.3437-1.2366-3.4988-1.8836
				c-2.2528-1.2621-4.5098-2.5347-6.6888-3.9219c-1.1326-0.721-2.2802-1.4231-3.3968-2.1685
				c-1.1185-0.7466-2.2317-1.5011-3.3438-2.2572c-0.0251-0.0177-0.0501-0.0354-0.0752-0.0531
				c-0.0177-0.0251-0.0354-0.0501-0.0531-0.0752c-0.7561-1.1121-1.5105-2.2253-2.2572-3.3438
				c-0.7454-1.1166-1.4475-2.2643-2.1685-3.3968c-1.3872-2.179-2.6599-4.436-3.9219-6.6888
				c-0.6471-1.155-1.2741-2.3225-1.8836-3.4988c-1.2628,0.4008-2.5317,0.7829-3.8059,1.1421
				c-2.4854,0.7006-4.9813,1.3966-7.5029,1.9565c-1.3107,0.291-2.6187,0.606-3.9353,0.8685
				c-1.3188,0.2629-2.6395,0.5166-3.9604,0.7684c-2.6655,0.4605-5.3349,0.8694-8.0152,1.2337
				c-2.5912,0.3522-5.1976,0.5913-7.8026,0.8117c-2.3414,0.1981-4.6927,0.3424-7.0414,0.4193
				c-0.1222,0.004-0.3403,0.0553-0.4588,0.015c-0.0455-0.0155-0.0978-0.0745-0.1353-0.1031
				c-0.3081-0.2349-0.6161-0.4697-0.9242-0.7046c-0.977-0.7448-1.941-1.503-2.8982-2.2731
				c-2.0102-1.6171-4.0033-3.262-5.9257-4.9831c-0.5555-0.4973-1.111-0.9946-1.6664-1.4919
				c4.4277,0.1339,8.8535,0.1488,13.2797-0.059c3.561-0.1673,7.1275-0.435,10.6751-0.8424
				c-3.5476-0.4074-7.1141-0.6752-10.6751-0.8424c-4.4262-0.2079-8.852-0.1929-13.2797-0.059
				c0.5555-0.4973,1.111-0.9946,1.6664-1.4919c1.9225-1.7211,3.9156-3.3661,5.9257-4.9831c0.9572-0.77,1.9213-1.5283,2.8982-2.2731
				c0.3081-0.2349,0.6161-0.4697,0.9242-0.7046c0.0375-0.0286,0.0898-0.0877,0.1353-0.1031c0.1185-0.0402,0.3366,0.011,0.4588,0.015
				c2.3487,0.0769,4.7,0.2212,7.0414,0.4193c2.605,0.2204,5.2114,0.4595,7.8026,0.8117c2.6802,0.3643,5.3497,0.7731,8.0152,1.2337
				c1.321,0.2517,2.6416,0.5054,3.9604,0.7684c1.3166,0.2625,2.6246,0.5775,3.9353,0.8685
				c2.5217,0.5599,5.0175,1.2559,7.5029,1.9565c1.2743,0.3592,2.5432,0.7413,3.8059,1.1421
				c0.6095-1.1763,1.2366-2.3437,1.8836-3.4988c1.2621-2.2528,2.5347-4.5098,3.9219-6.6888
				c0.721-1.1326,1.4231-2.2802,2.1685-3.3968c0.7466-1.1185,1.5011-2.2317,2.2572-3.3438
				c0.0177-0.0251,0.0354-0.0501,0.0531-0.0752c0.0251-0.0177,0.0501-0.0354,0.0752-0.0531
				c1.1121-0.7561,2.2253-1.5105,3.3438-2.2572c1.1166-0.7454,2.2643-1.4475,3.3968-2.1685c2.179-1.3872,4.436-2.6599,6.6888-3.9219
				c1.155-0.6471,2.3225-1.2741,3.4988-1.8836c-0.4008-1.2628-0.7829-2.5317-1.1421-3.806
				c-0.7006-2.4854-1.3966-4.9813-1.9565-7.5029c-0.291-1.3107-0.606-2.6187-0.8685-3.9353
				c-0.2629-1.3188-0.5166-2.6395-0.7684-3.9605c-0.4605-2.6655-0.8694-5.3349-1.2337-8.0152
				c-0.3522-2.5911-0.5913-5.1976-0.8117-7.8026c-0.1981-2.3414-0.3424-4.6927-0.4193-7.0414
				c-0.004-0.1222-0.0553-0.3403-0.015-0.4588c0.0155-0.0455,0.0745-0.0978,0.1031-0.1353
				c0.2349-0.3081,0.4697-0.6161,0.7046-0.9242c0.7448-0.977,1.503-1.941,2.2731-2.8982c1.6171-2.0102,3.262-4.0033,4.9831-5.9257
				c0.4973-0.5555,0.9946-1.111,1.4919-1.6664c-0.1339,4.4277-0.1488,8.8535,0.059,13.2797
				c0.1673,3.561,0.435,7.1275,0.8424,10.6751c0.4074-3.5476,0.6752-7.1141,0.8424-10.6751
				c0.2079-4.4262,0.1929-8.852,0.059-13.2797c0.4973,0.5555,0.9946,1.111,1.4919,1.6664c1.7211,1.9225,3.3661,3.9155,4.9831,5.9257
				c0.77,0.9572,1.5283,1.9213,2.2731,2.8982c0.2349,0.3081,0.4697,0.6161,0.7046,0.9242c0.0286,0.0375,0.0877,0.0898,0.1031,0.1353
				c0.0402,0.1185-0.011,0.3366-0.015,0.4588c-0.0769,2.3487-0.2212,4.7-0.4193,7.0414c-0.2204,2.605-0.4595,5.2114-0.8117,7.8026
				c-0.3643,2.6803-0.7731,5.3497-1.2337,8.0152c-0.2517,1.321-0.5054,2.6416-0.7684,3.9605
				c-0.2625,1.3166-0.5775,2.6246-0.8685,3.9353c-0.5599,2.5217-1.2559,5.0175-1.9565,7.5029
				c-0.3592,1.2743-0.7413,2.5432-1.1421,3.806c1.1763,0.6095,2.3437,1.2366,3.4988,1.8836
				c2.2528,1.2621,4.5098,2.5347,6.6888,3.9219c1.1326,0.721,2.2802,1.4231,3.3968,2.1685
				c1.1185,0.7466,2.2317,1.5011,3.3438,2.2572c0.0251,0.0177,0.0501,0.0354,0.0752,0.0531
				C177.4575-177.4148,177.4752-177.3897,177.4929-177.3646z"/>
			<path d="M155.507-166.1723c-1.5028,0.9149-2.984,1.8657-4.446,2.8447c-0.979,1.462-1.9297,2.9433-2.8447,4.446
				c-0.3418,0.5613-0.6816,1.1232-1.0177,1.6873c0.3361,0.5641,0.6759,1.126,1.0177,1.6873c0.9149,1.5028,1.8657,2.984,2.8447,4.446
				c1.462,0.979,2.9433,1.9297,4.446,2.8447c0.5613,0.3418,1.1232,0.6816,1.6873,1.0177c0.5641-0.3361,1.126-0.6759,1.6873-1.0177
				c1.5028-0.9149,2.984-1.8657,4.446-2.8447c0.979-1.462,1.9297-2.9433,2.8447-4.446c0.3418-0.5613,0.6816-1.1232,1.0177-1.6873
				c-0.3361-0.5641-0.6759-1.126-1.0177-1.6873c-0.9149-1.5028-1.8657-2.984-2.8447-4.446c-1.462-0.979-2.9433-1.9297-4.446-2.8447
				c-0.5613-0.3418-1.1232-0.6816-1.6873-1.0177C156.6302-166.854,156.0684-166.5141,155.507-166.1723z M176.2754-161.4849
				c2.5002,0.7318,4.9922,1.4886,7.4556,2.3377c1.0073,0.3472,2.017,0.6967,3.0169,1.0677
				c0.6274,0.2878,1.2513,0.5848,1.8731,0.8851c-0.6218,0.3003-1.2457,0.5974-1.8731,0.8851
				c-0.9999,0.3711-2.0096,0.7206-3.0169,1.0677c-2.4635,0.8491-4.9554,1.6059-7.4556,2.3377
				c-3.9222,1.1479-7.9188,2.0848-11.9359,2.8545c-0.7697,4.0171-1.7065,8.0137-2.8545,11.9359
				c-0.7318,2.5002-1.4886,4.9922-2.3377,7.4556c-0.3472,1.0073-0.6967,2.017-1.0677,3.0169
				c-0.2878,0.6274-0.5848,1.2513-0.8851,1.8731c-0.3003-0.6218-0.5974-1.2457-0.8851-1.8731
				c-0.3711-0.9999-0.7206-2.0096-1.0677-3.0169c-0.8491-2.4635-1.6059-4.9554-2.3377-7.4556
				c-1.1479-3.9222-2.0848-7.9188-2.8545-11.9359c-4.0171-0.7697-8.0137-1.7065-11.9359-2.8545
				c-2.5002-0.7318-4.9922-1.4886-7.4556-2.3377c-1.0073-0.3472-2.017-0.6967-3.0169-1.0677
				c-0.6274-0.2878-1.2513-0.5848-1.8731-0.8851c0.6218-0.3003,1.2457-0.5974,1.8731-0.8851
				c0.9999-0.3711,2.0096-0.7206,3.0169-1.0677c2.4635-0.8491,4.9554-1.6059,7.4556-2.3377
				c3.9222-1.1479,7.9188-2.0848,11.9359-2.8545c0.7697-4.0171,1.7065-8.0137,2.8545-11.9359
				c0.7318-2.5002,1.4886-4.9922,2.3377-7.4556c0.3472-1.0073,0.6967-2.017,1.0677-3.0169
				c0.2878-0.6274,0.5848-1.2513,0.8851-1.8731c0.3003,0.6218,0.5974,1.2457,0.8851,1.8731
				c0.3711,0.9999,0.7206,2.0096,1.0677,3.0169c0.8491,2.4635,1.6059,4.9554,2.3377,7.4556
				c1.1479,3.9222,2.0848,7.9188,2.8545,11.9359C168.3566-163.5698,172.3532-162.6329,176.2754-161.4849z"/>
			<path d="M192.5747-191.7558c1.5445,2.1323,3.0048,4.3264,4.4469,6.5286c0.1987,0.3035,0.3965,0.6077,0.5933,0.9125
				c0.3548-0.0764,0.7097-0.1516,1.0648-0.2257c2.5769-0.5376,5.1609-1.0564,7.7608-1.472
				c2.5012-0.3998,5.0054-0.7575,7.5175-1.0807c1.2221-0.1572,2.4457-0.2905,3.6716-0.4145
				c0.3676-0.0372,0.7353-0.0744,1.103-0.1115c0.1915-0.0194,0.2236,0.0133,0.4012,0.1171
				c1.9965,1.1664,3.9785,2.3739,5.9142,3.6388c2.1252,1.3887,4.2354,2.7923,6.3184,4.2438
				c2.1797,1.5189,4.3139,3.1051,6.415,4.7306c4.2666,3.3009,8.3822,6.7822,12.3351,10.4536
				c2.516,2.3368,4.9568,4.7531,7.3228,7.2409c-2.366,2.4878-4.8068,4.9041-7.3228,7.2409
				c-3.9528,3.6714-8.0685,7.1528-12.3351,10.4536c-2.1011,1.6255-4.2353,3.2117-6.415,4.7306
				c-2.083,1.4515-4.1932,2.8551-6.3184,4.2438c-1.9357,1.2649-3.9176,2.4723-5.9142,3.6388
				c-0.1775,0.1037-0.2097,0.1364-0.4012,0.117c-0.3677-0.0372-0.7353-0.0744-1.103-0.1115
				c-1.2258-0.124-2.4495-0.2573-3.6716-0.4145c-2.5121-0.3232-5.0163-0.6809-7.5175-1.0807
				c-2.5999-0.4156-5.1839-0.9345-7.7608-1.472c-0.3551-0.0741-0.71-0.1493-1.0648-0.2257
				c-0.1968,0.3049-0.3946,0.609-0.5933,0.9125c-1.442,2.2022-2.9023,4.3963-4.4469,6.5286
				c-0.1147,0.1583-0.2295,0.3164-0.3445,0.4744c-0.158,0.115-0.3161,0.2299-0.4743,0.3445
				c-2.1323,1.5445-4.3264,3.0048-6.5286,4.4469c-0.3035,0.1987-0.6077,0.3965-0.9125,0.5933
				c0.0764,0.3547,0.1516,0.7097,0.2257,1.0648c0.5376,2.5769,1.0564,5.1609,1.472,7.7608
				c0.3998,2.5012,0.7575,5.0054,1.0807,7.5175c0.1572,1.222,0.2905,2.4457,0.4145,3.6715c0.0372,0.3676,0.0744,0.7353,0.1115,1.103
				c0.0194,0.1915-0.0133,0.2236-0.1171,0.4012c-1.1664,1.9965-2.3739,3.9785-3.6388,5.9142
				c-1.3887,2.1252-2.7923,4.2354-4.2438,6.3184c-1.5189,2.1796-3.1051,4.3139-4.7306,6.415
				c-3.3009,4.2666-6.7822,8.3822-10.4536,12.3351c-2.3368,2.516-4.7531,4.9568-7.2409,7.3228
				c-2.4878-2.366-4.9041-4.8068-7.2409-7.3228c-3.6714-3.9528-7.1528-8.0685-10.4536-12.3351
				c-1.6255-2.1011-3.2117-4.2353-4.7306-6.415c-1.4515-2.083-2.8551-4.1932-4.2438-6.3184
				c-1.2649-1.9357-2.4723-3.9176-3.6388-5.9142c-0.1037-0.1775-0.1364-0.2097-0.117-0.4012
				c0.0372-0.3677,0.0744-0.7353,0.1115-1.103c0.124-1.2258,0.2573-2.4495,0.4145-3.6715c0.3232-2.5121,0.6809-5.0163,1.0807-7.5175
				c0.4156-2.5999,0.9345-5.1839,1.472-7.7608c0.0741-0.3551,0.1493-0.7101,0.2257-1.0648
				c-0.3049-0.1968-0.609-0.3946-0.9125-0.5933c-2.2022-1.442-4.3963-2.9023-6.5286-4.4469
				c-0.1583-0.1146-0.3164-0.2295-0.4744-0.3445c-0.115-0.158-0.2299-0.3161-0.3445-0.4744
				c-1.5445-2.1323-3.0048-4.3264-4.4469-6.5286c-0.1987-0.3035-0.3965-0.6077-0.5933-0.9125
				c-0.3547,0.0764-0.7097,0.1516-1.0648,0.2257c-2.5769,0.5376-5.1609,1.0564-7.7608,1.472
				c-2.5012,0.3998-5.0054,0.7575-7.5175,1.0807c-1.222,0.1572-2.4457,0.2905-3.6715,0.4145
				c-0.3676,0.0372-0.7353,0.0744-1.103,0.1115c-0.1915,0.0194-0.2236-0.0133-0.4012-0.117
				c-1.9965-1.1665-3.9785-2.3739-5.9142-3.6388c-2.1252-1.3887-4.2354-2.7923-6.3184-4.2438
				c-2.1796-1.5189-4.3139-3.1051-6.415-4.7306c-4.2666-3.3009-8.3822-6.7822-12.3351-10.4536
				c-2.516-2.3368-4.9568-4.7531-7.3228-7.2409c2.366-2.4878,4.8068-4.9041,7.3228-7.2409
				c3.9528-3.6714,8.0685-7.1528,12.3351-10.4536c2.1011-1.6255,4.2353-3.2117,6.415-4.7306
				c2.083-1.4515,4.1932-2.8551,6.3184-4.2438c1.9357-1.2649,3.9176-2.4723,5.9142-3.6388
				c0.1775-0.1037,0.2097-0.1364,0.4012-0.1171c0.3677,0.0372,0.7353,0.0744,1.103,0.1115c1.2258,0.124,2.4495,0.2573,3.6715,0.4145
				c2.5121,0.3232,5.0163,0.6809,7.5175,1.0807c2.5999,0.4156,5.1839,0.9345,7.7608,1.472
				c0.3551,0.0741,0.7101,0.1493,1.0648,0.2257c0.1968-0.3049,0.3946-0.609,0.5933-0.9125c1.442-2.2023,2.9023-4.3963,4.4469-6.5286
				c0.1146-0.1583,0.2295-0.3164,0.3445-0.4743c0.158-0.115,0.3161-0.2299,0.4744-0.3445c2.1323-1.5445,4.3264-3.0048,6.5286-4.4469
				c0.3035-0.1987,0.6077-0.3965,0.9125-0.5933c-0.0764-0.3548-0.1516-0.7097-0.2257-1.0648
				c-0.5376-2.5769-1.0564-5.1609-1.472-7.7608c-0.3998-2.5012-0.7575-5.0054-1.0807-7.5175
				c-0.1572-1.2221-0.2905-2.4457-0.4145-3.6716c-0.0372-0.3676-0.0744-0.7353-0.1115-1.103
				c-0.0194-0.1915,0.0133-0.2236,0.117-0.4012c1.1665-1.9965,2.3739-3.9785,3.6388-5.9142
				c1.3887-2.1252,2.7923-4.2354,4.2438-6.3184c1.5189-2.1797,3.1051-4.3139,4.7306-6.415
				c3.3009-4.2666,6.7822-8.3822,10.4536-12.3351c2.3368-2.516,4.7531-4.9568,7.2409-7.3228
				c2.4878,2.366,4.9041,4.8068,7.2409,7.3228c3.6714,3.9528,7.1528,8.0685,10.4536,12.3351
				c1.6255,2.1011,3.2117,4.2353,4.7306,6.415c1.4515,2.083,2.8551,4.1932,4.2438,6.3184c1.2649,1.9357,2.4723,3.9176,3.6388,5.9142
				c0.1037,0.1775,0.1364,0.2097,0.1171,0.4012c-0.0372,0.3677-0.0744,0.7353-0.1115,1.103
				c-0.124,1.2258-0.2573,2.4495-0.4145,3.6716c-0.3232,2.5121-0.6809,5.0163-1.0807,7.5175
				c-0.4156,2.5999-0.9345,5.1839-1.472,7.7608c-0.0741,0.3551-0.1493,0.71-0.2257,1.0648c0.3049,0.1968,0.609,0.3946,0.9125,0.5933
				c2.2023,1.442,4.3963,2.9023,6.5286,4.4469c0.1583,0.1147,0.3164,0.2295,0.4743,0.3445
				C192.3452-192.0722,192.46-191.9141,192.5747-191.7558z M180.4435-130.1482c-0.5438,1.8687-1.1159,3.7401-1.7563,5.5783
				c2.2557-1.4297,4.4785-2.9241,6.6572-4.4744c1.5503-2.1787,3.0447-4.4015,4.4744-6.6572
				c-1.8382,0.6404-3.7096,1.2125-5.5783,1.7563c-0.986,0.2869-1.9742,0.5636-2.9643,0.8327
				C181.0071-132.1224,180.7304-131.1342,180.4435-130.1482z M130.1482-133.9452c-1.8687-0.5438-3.7401-1.1159-5.5783-1.7563
				c1.4297,2.2557,2.9241,4.4785,4.4744,6.6572c2.1787,1.5503,4.4015,3.0447,6.6572,4.4744
				c-0.6404-1.8382-1.2125-3.7096-1.7563-5.5783c-0.2869-0.986-0.5636-1.9742-0.8327-2.9643
				C132.1224-133.3816,131.1342-133.6583,130.1482-133.9452z M133.9452-184.2404c0.5438-1.8687,1.1159-3.7401,1.7563-5.5783
				c-2.2557,1.4297-4.4785,2.9241-6.6572,4.4744c-1.5503,2.1787-3.0447,4.4015-4.4744,6.6572
				c1.8382-0.6404,3.7096-1.2125,5.5783-1.7563c0.986-0.2869,1.9742-0.5636,2.9643-0.8327
				C133.3816-182.2663,133.6583-183.2545,133.9452-184.2404z M184.2404-180.4435c1.8687,0.5438,3.7401,1.1159,5.5783,1.7563
				c-1.4297-2.2557-2.9241-4.4785-4.4744-6.6572c-2.1787-1.5503-4.4015-3.0447-6.6572-4.4744
				c0.6404,1.8382,1.2125,3.7096,1.7563,5.5783c0.2869,0.986,0.5636,1.9742,0.8327,2.9643
				C182.2663-181.0071,183.2545-180.7304,184.2404-180.4435z M148.2949-233.4687c-3.1995,4.0003-6.1784,8.2085-8.9564,12.5112
				c-0.6467,1.0016-1.2976,2.0023-1.9244,3.0164c-0.2392,0.3871-0.4734,0.7774-0.7092,1.1666
				c-0.0699,0.1154-0.015,0.2633,0.0005,0.3938c0.2683,2.2686,0.566,4.5309,0.9066,6.79c0.5275,3.4984,1.1802,6.9901,1.9539,10.4424
				c0.847-1.7526,1.7657-3.4804,2.7026-5.1864c1.2345-2.2479,2.5239-4.4604,3.8365-6.6633c0.4484-0.7525,0.917-1.4921,1.3842-2.233
				c0.6451,4.668,1.534,9.2866,2.5552,13.8858c0.0283,0.1273,0.1484,0.3934,0.0818,0.5166
				c-0.2349,0.4348-0.4562,0.8775-0.6824,1.3169c-0.516,1.0023-1.0437,1.9999-1.5331,3.0155
				c-0.5718,1.1866-1.1376,2.3749-1.692,3.5686c-0.452,1.2361-0.8922,2.4764-1.3269,3.7198
				c-0.3721,1.0642-0.7044,2.1427-1.0483,3.2164c-0.1508,0.4706-0.3073,0.9402-0.4487,1.4137
				c-0.04,0.1341-0.3132,0.2374-0.4232,0.3074c-2.2039,1.403-4.3832,2.839-6.5282,4.325c-1.4861,2.145-2.9221,4.3243-4.325,6.5282
				c-0.07,0.11-0.1733,0.3831-0.3074,0.4232c-0.4736,0.1413-0.9431,0.2979-1.4137,0.4487
				c-1.0736,0.3439-2.1521,0.6761-3.2164,1.0483c-1.2434,0.4347-2.4837,0.8749-3.7198,1.3269
				c-1.1936,0.5544-2.3819,1.1202-3.5686,1.692c-1.0157,0.4894-2.0132,1.0171-3.0155,1.5331
				c-0.4394,0.2262-0.8821,0.4475-1.3169,0.6824c-0.1232,0.0665-0.3893-0.0536-0.5166-0.0818
				c-4.5991-1.0212-9.2178-1.9101-13.8858-2.5552c0.7409-0.4672,1.4805-0.9358,2.233-1.3842
				c2.2029-1.3126,4.4154-2.602,6.6633-3.8365c1.7059-0.9368,3.4337-1.8556,5.1864-2.7026
				c-3.4524-0.7738-6.944-1.4264-10.4424-1.9539c-2.2591-0.3407-4.5214-0.6383-6.79-0.9066
				c-0.1305-0.0154-0.2785-0.0704-0.3938-0.0005c-0.3892,0.2358-0.7795,0.47-1.1666,0.7092
				c-1.0141,0.6268-2.0148,1.2777-3.0164,1.9244c-4.3027,2.778-8.5109,5.7569-12.5112,8.9564
				c-3.5661,2.8522-7.0433,5.7969-10.3901,8.8995c3.3468,3.1026,6.824,6.0473,10.3901,8.8995
				c4.0003,3.1995,8.2085,6.1784,12.5112,8.9564c1.0016,0.6467,2.0023,1.2976,3.0164,1.9244
				c0.3871,0.2392,0.7774,0.4734,1.1666,0.7092c0.1154,0.0699,0.2633,0.015,0.3938-0.0005c2.2686-0.2683,4.5309-0.566,6.79-0.9066
				c3.4984-0.5275,6.9901-1.1802,10.4424-1.9539c-1.7527-0.847-3.4804-1.7657-5.1864-2.7026
				c-2.2479-1.2345-4.4604-2.5239-6.6633-3.8365c-0.7525-0.4484-1.4921-0.917-2.233-1.3842
				c4.668-0.6451,9.2866-1.534,13.8858-2.5552c0.1273-0.0283,0.3934-0.1484,0.5166-0.0818
				c0.4348,0.2349,0.8775,0.4562,1.3169,0.6824c1.0023,0.516,1.9999,1.0437,3.0155,1.5331c1.1866,0.5718,2.3749,1.1376,3.5686,1.692
				c1.236,0.452,2.4764,0.8922,3.7198,1.3269c1.0642,0.3721,2.1427,0.7044,3.2164,1.0483c0.4706,0.1508,0.9402,0.3073,1.4137,0.4487
				c0.1341,0.04,0.2374,0.3132,0.3074,0.4232c1.403,2.2039,2.839,4.3832,4.325,6.5282c2.145,1.4861,4.3243,2.9221,6.5282,4.325
				c0.11,0.07,0.3831,0.1733,0.4232,0.3074c0.1413,0.4736,0.2979,0.9431,0.4487,1.4137c0.3439,1.0736,0.6761,2.1521,1.0483,3.2164
				c0.4347,1.2434,0.8749,2.4837,1.3269,3.7198c0.5544,1.1936,1.1202,2.3819,1.692,3.5686
				c0.4894,1.0157,1.0171,2.0132,1.5331,3.0155c0.2262,0.4394,0.4475,0.8821,0.6824,1.3169
				c0.0665,0.1232-0.0536,0.3893-0.0818,0.5166c-1.0212,4.5991-1.9101,9.2178-2.5552,13.8858
				c-0.4672-0.7409-0.9358-1.4805-1.3842-2.233c-1.3126-2.2029-2.602-4.4154-3.8365-6.6633
				c-0.9368-1.7059-1.8556-3.4337-2.7026-5.1864c-0.7738,3.4524-1.4264,6.944-1.9539,10.4424
				c-0.3407,2.2591-0.6383,4.5214-0.9066,6.79c-0.0154,0.1305-0.0704,0.2785-0.0005,0.3938c0.2358,0.3892,0.47,0.7795,0.7092,1.1666
				c0.6268,1.0141,1.2777,2.0148,1.9244,3.0164c2.778,4.3027,5.7569,8.5109,8.9564,12.5112
				c2.8522,3.5661,5.7969,7.0433,8.8995,10.3901c3.1026-3.3468,6.0473-6.824,8.8995-10.3901
				c3.1995-4.0003,6.1784-8.2085,8.9564-12.5112c0.6467-1.0016,1.2976-2.0023,1.9244-3.0164
				c0.2392-0.3871,0.4734-0.7774,0.7092-1.1666c0.0699-0.1154,0.015-0.2633-0.0005-0.3938c-0.2683-2.2686-0.566-4.5309-0.9066-6.79
				c-0.5275-3.4984-1.1802-6.9901-1.9539-10.4424c-0.847,1.7527-1.7657,3.4804-2.7026,5.1864
				c-1.2345,2.2479-2.5239,4.4604-3.8365,6.6633c-0.4484,0.7525-0.917,1.4921-1.3842,2.233
				c-0.6451-4.668-1.534-9.2866-2.5552-13.8858c-0.0283-0.1273-0.1484-0.3934-0.0818-0.5166
				c0.2349-0.4348,0.4562-0.8775,0.6824-1.3169c0.516-1.0023,1.0437-1.9999,1.5331-3.0155c0.5718-1.1866,1.1376-2.3749,1.692-3.5686
				c0.452-1.236,0.8922-2.4764,1.3269-3.7198c0.3721-1.0642,0.7044-2.1427,1.0483-3.2164c0.1508-0.4706,0.3073-0.9402,0.4487-1.4137
				c0.04-0.1341,0.3132-0.2374,0.4232-0.3074c2.2039-1.403,4.3832-2.839,6.5282-4.325c1.4861-2.145,2.9221-4.3243,4.325-6.5282
				c0.07-0.11,0.1733-0.3831,0.3074-0.4232c0.4736-0.1413,0.9431-0.2979,1.4137-0.4487c1.0736-0.3439,2.1521-0.6761,3.2164-1.0483
				c1.2434-0.4347,2.4837-0.8749,3.7198-1.3269c1.1936-0.5544,2.3819-1.1202,3.5686-1.692
				c1.0157-0.4894,2.0132-1.0171,3.0155-1.5331c0.4394-0.2262,0.8821-0.4475,1.3169-0.6824
				c0.1232-0.0665,0.3893,0.0536,0.5166,0.0818c4.5991,1.0212,9.2178,1.9101,13.8858,2.5552
				c-0.7409,0.4672-1.4805,0.9358-2.233,1.3842c-2.2029,1.3126-4.4153,2.602-6.6633,3.8365
				c-1.7059,0.9368-3.4337,1.8556-5.1864,2.7026c3.4524,0.7738,6.944,1.4264,10.4424,1.9539
				c2.2591,0.3407,4.5214,0.6383,6.79,0.9066c0.1305,0.0154,0.2785,0.0704,0.3938,0.0005c0.3892-0.2358,0.7795-0.47,1.1666-0.7092
				c1.0141-0.6268,2.0148-1.2777,3.0164-1.9244c4.3027-2.778,8.5109-5.7569,12.5112-8.9564
				c3.5661-2.8522,7.0433-5.7969,10.3901-8.8995c-3.3468-3.1026-6.8241-6.0473-10.3901-8.8995
				c-4.0003-3.1995-8.2085-6.1784-12.5112-8.9564c-1.0016-0.6467-2.0023-1.2976-3.0164-1.9244
				c-0.3871-0.2392-0.7774-0.4734-1.1666-0.7092c-0.1154-0.0699-0.2633-0.015-0.3938,0.0005
				c-2.2686,0.2683-4.5309,0.566-6.79,0.9066c-3.4984,0.5275-6.9901,1.1802-10.4424,1.9539
				c1.7526,0.847,3.4804,1.7657,5.1864,2.7026c2.2479,1.2345,4.4604,2.5239,6.6633,3.8365c0.7525,0.4484,1.4921,0.917,2.233,1.3842
				c-4.668,0.6451-9.2866,1.534-13.8858,2.5552c-0.1273,0.0283-0.3934,0.1484-0.5166,0.0818
				c-0.4348-0.2349-0.8775-0.4562-1.3169-0.6824c-1.0023-0.516-1.9999-1.0437-3.0155-1.5331
				c-1.1866-0.5718-2.3749-1.1376-3.5686-1.692c-1.2361-0.452-2.4764-0.8922-3.7198-1.3269
				c-1.0642-0.3721-2.1427-0.7044-3.2164-1.0483c-0.4706-0.1508-0.9402-0.3073-1.4137-0.4487
				c-0.1341-0.04-0.2374-0.3132-0.3074-0.4232c-1.403-2.2039-2.839-4.3832-4.325-6.5282c-2.145-1.4861-4.3243-2.9221-6.5282-4.325
				c-0.11-0.07-0.3831-0.1733-0.4232-0.3074c-0.1413-0.4736-0.2979-0.9431-0.4487-1.4137
				c-0.3439-1.0736-0.6761-2.1521-1.0483-3.2164c-0.4347-1.2434-0.8749-2.4837-1.3269-3.7198
				c-0.5544-1.1936-1.1202-2.3819-1.692-3.5686c-0.4894-1.0157-1.0171-2.0132-1.5331-3.0155
				c-0.2262-0.4394-0.4475-0.8821-0.6824-1.3169c-0.0665-0.1232,0.0536-0.3893,0.0818-0.5166
				c1.0212-4.5991,1.9101-9.2178,2.5552-13.8858c0.4672,0.7409,0.9358,1.4805,1.3842,2.233
				c1.3126,2.2029,2.602,4.4153,3.8365,6.6633c0.9368,1.7059,1.8556,3.4337,2.7026,5.1864
				c0.7738-3.4524,1.4264-6.944,1.9539-10.4424c0.3407-2.2591,0.6383-4.5214,0.9066-6.79c0.0154-0.1305,0.0704-0.2785,0.0005-0.3938
				c-0.2358-0.3892-0.47-0.7795-0.7092-1.1666c-0.6268-1.0141-1.2777-2.0148-1.9244-3.0164
				c-2.778-4.3027-5.7569-8.5109-8.9564-12.5112c-2.8522-3.5661-5.7969-7.0433-8.8995-10.3901
				C154.0917-240.512,151.147-237.0347,148.2949-233.4687z"/>
		</g>
		<g>
			<path d="M10.439-157.1943c-0.1273,0.1348-0.2545,0.2696-0.3818,0.4044c-0.8513,0.9018-1.7164,1.7879-2.5907,2.6674
				c-2.4216,2.4359-4.921,4.7826-7.4666,7.0879c4.6789-0.3461,9.3503-0.8067,13.9885-1.5232
				c2.6518-0.4096,5.2976-0.8451,7.9318-1.3577c2.5438-0.495,5.0732-1.0609,7.5942-1.6598c0.9851-0.234,1.9675-0.4751,2.9471-0.7314
				c0.1232-0.0322,0.3212-0.0368,0.4061-0.1408c0.0248-0.0304,0.0496-0.0608,0.0744-0.0912
				c0.0304-0.0248,0.0608-0.0496,0.0912-0.0744c0.104-0.0849,0.1086-0.2829,0.1408-0.4061c0.2563-0.9796,0.4974-1.962,0.7314-2.9471
				c0.0972-0.4091,0.1935-0.8183,0.2888-1.2279c-0.0953-0.4095-0.1916-0.8188-0.2888-1.2279
				c-0.234-0.9851-0.4751-1.9675-0.7314-2.9471c-0.0322-0.1232-0.0368-0.3212-0.1408-0.4061
				c-0.0304-0.0248-0.0608-0.0496-0.0912-0.0744c-0.0248-0.0304-0.0496-0.0608-0.0744-0.0912
				c-0.0849-0.104-0.2829-0.1086-0.4061-0.1408c-0.9796-0.2563-1.962-0.4974-2.9471-0.7314
				c-2.5211-0.5989-5.0504-1.1648-7.5942-1.6598c-2.6342-0.5126-5.28-0.9481-7.9318-1.3577
				c-4.6382-0.7165-9.3096-1.1771-13.9885-1.5232c2.5456,2.3053,5.045,4.6519,7.4666,7.0879
				c0.8743,0.8795,1.7393,1.7656,2.5907,2.6674C10.1845-157.4639,10.3117-157.3291,10.439-157.1943z"/>
		</g>
		<g>
			<path d="M157.1943-303.9497c-0.1348-0.1273-0.2696-0.2545-0.4044-0.3817c-0.9018-0.8513-1.7879-1.7164-2.6674-2.5907
				c-2.4359-2.4216-4.7826-4.921-7.0879-7.4666c0.3461,4.6789,0.8067,9.3503,1.5232,13.9885
				c0.4096,2.6518,0.8451,5.2976,1.3577,7.9318c0.495,2.5438,1.0609,5.0732,1.6598,7.5942c0.234,0.9851,0.4751,1.9676,0.7314,2.9471
				c0.0322,0.1232,0.0368,0.3212,0.1408,0.4061c0.0304,0.0248,0.0608,0.0496,0.0912,0.0744
				c0.0248,0.0304,0.0496,0.0608,0.0744,0.0912c0.0849,0.104,0.2829,0.1086,0.4061,0.1408c0.9796,0.2563,1.962,0.4974,2.9471,0.7314
				c0.4091,0.0972,0.8183,0.1935,1.2279,0.2888c0.4095-0.0953,0.8188-0.1916,1.2279-0.2888
				c0.9851-0.234,1.9675-0.4751,2.9471-0.7314c0.1232-0.0322,0.3212-0.0368,0.4061-0.1408
				c0.0248-0.0304,0.0496-0.0608,0.0744-0.0912c0.0304-0.0248,0.0608-0.0496,0.0912-0.0744
				c0.104-0.0849,0.1086-0.2829,0.1408-0.4061c0.2563-0.9796,0.4974-1.962,0.7314-2.9471c0.5989-2.5211,1.1648-5.0504,1.6598-7.5942
				c0.5126-2.6342,0.9481-5.28,1.3577-7.9318c0.7165-4.6382,1.1771-9.3096,1.5232-13.9885
				c-2.3053,2.5456-4.6519,5.045-7.0879,7.4666c-0.8795,0.8743-1.7656,1.7393-2.6674,2.5907
				C157.4639-304.2042,157.3291-304.077,157.1943-303.9497z"/>
		</g>
	</g>
</pattern>
<pattern  id="SVGID_1_" xlink:href="#New_Pattern" patternTransform="matrix(1 0 0 1 40 57)">
</pattern>
<rect fill="url(#SVGID_1_)" width="2560" height="1600"/>
</svg>
